<?xml version="1.0" standalone="no"?>
<!DOCTYPE svg PUBLIC "-//W3C//DTD SVG 20010904//EN"
 "http://www.w3.org/TR/2001/REC-SVG-20010904/DTD/svg10.dtd">
<svg version="1.0" xmlns="http://www.w3.org/2000/svg"
 width="512.000000pt" height="512.000000pt" viewBox="0 0 512.000000 512.000000"
 preserveAspectRatio="xMidYMid meet">

<g transform="translate(0.000000,512.000000) scale(0.100000,-0.100000)"
fill="#000000" stroke="none">
<path d="M1053 5096 l-28 -24 -3 -190 -4 -190 -31 9 c-87 25 -274 59 -325 59
-58 0 -116 -21 -159 -57 -12 -10 -70 -79 -130 -153 l-108 -136 -47 14 c-82 23
-165 -15 -202 -92 -15 -31 -16 -184 -16 -1682 0 -1646 0 -1648 21 -1690 11
-24 35 -52 52 -63 18 -10 478 -215 1023 -455 865 -380 998 -436 1040 -436 27
0 55 4 63 9 8 5 27 3 47 -5 48 -20 580 -20 628 0 20 8 39 10 47 5 8 -5 36 -9
63 -9 44 0 168 52 1030 431 540 237 1000 442 1023 455 27 16 48 38 62 67 l21
43 0 1647 c0 1369 -2 1653 -14 1680 -30 72 -124 120 -195 99 -21 -7 -43 -12
-49 -12 -7 0 -64 65 -128 145 -99 124 -123 148 -170 171 -51 25 -61 26 -142
21 -48 -4 -140 -19 -204 -35 l-116 -29 -4 190 -3 189 -28 24 c-35 30 -43 30
-185 -2 -334 -75 -642 -220 -873 -412 -168 -140 -320 -333 -405 -516 -21 -47
-41 -85 -44 -85 -3 0 -23 38 -45 85 -78 169 -229 366 -377 494 -237 203 -557
358 -899 434 -143 32 -151 32 -186 2z m412 -246 c381 -134 688 -380 865 -695
33 -57 33 -59 10 -44 -130 85 -190 121 -321 194 -223 124 -556 265 -758 321
l-61 17 0 143 0 143 88 -24 c48 -13 128 -38 177 -55z m2455 -63 l0 -144 -61
-17 c-280 -78 -705 -274 -989 -457 -47 -30 -92 -59 -99 -64 -21 -12 41 95 107
188 207 290 551 507 982 621 30 8 56 15 58 15 1 1 2 -64 2 -142z m-3127 -217
c317 -65 661 -180 967 -322 243 -114 516 -286 637 -403 l73 -70 0 -98 0 -97
-102 0 c-56 0 -115 -5 -132 -11 -29 -10 -88 14 -911 376 -484 213 -884 391
-888 395 -7 6 150 212 183 237 22 17 64 16 173 -7z m3719 -7 c57 -61 177 -218
170 -224 -4 -3 -403 -180 -887 -393 -802 -353 -882 -386 -909 -376 -16 5 -76
10 -132 10 l-104 0 0 96 0 96 63 63 c157 153 514 364 854 503 167 69 431 155
604 196 279 68 303 69 341 29z m-3354 -1420 l632 -298 0 -327 c0 -181 -2 -328
-4 -328 -2 0 -289 134 -637 298 l-634 298 -3 327 c-1 180 1 327 5 327 5 0 293
-134 641 -297z m3442 -30 l0 -328 -626 -295 c-345 -162 -631 -296 -635 -298
-5 -2 -9 144 -9 325 l0 328 633 297 c347 164 633 298 635 298 1 0 2 -147 2
-327z m-1790 -298 l0 -85 -250 0 -250 0 0 85 0 85 250 0 250 0 0 -85z m0
-2050 l0 -85 -250 0 -250 0 0 85 0 85 250 0 250 0 0 -85z"/>
</g>
</svg>
